
nColumns=19
nRows=55
DataType=double
version=3
OpenSimVersion=4.4-2022-10-11-798caa840
endheader
time	ground_force_calcn_r_vx	ground_force_calcn_r_vy	ground_force_calcn_r_vz	ground_force_calcn_r_px	ground_force_calcn_r_py	ground_force_calcn_r_pz	ground_force_calcn_r_mx	ground_force_calcn_r_my	ground_force_calcn_r_mz	ground_force_calcn_l_vx	ground_force_calcn_l_vy	ground_force_calcn_l_vz	ground_force_calcn_l_px	ground_force_calcn_l_py	ground_force_calcn_l_pz	ground_force_calcn_l_mx	ground_force_calcn_l_my	ground_force_calcn_l_mz
1.33	-71.7282	142.312	-26.0017	-0.120266	0	-0.402437	-0.11729	0.232708	-0.042518	0	0	0	0	0	0	0	0	0
1.34	-296.452	614.337	-104.315	-0.129412	0	-0.40454	-1.14422	2.37116	-0.402625	0	0	0	0	0	0	0	0	0
1.35	-274.187	861.332	-134.113	-0.140019	0	-0.409444	-2.3894	7.50609	-1.16873	0	0	0	0	0	0	0	0	0
1.36	-17.9421	813.032	-61.0628	-0.155749	0	-0.415344	-0.225777	10.2309	-0.768391	-43.7516	50.4949	1.08425	-0.0340351	0	-0.758236	0.204012	-0.235455	-0.00505582
1.37	-56.5071	908.588	-52.6827	-0.158786	0	-0.422793	-0.355891	5.72243	-0.331804	-180.112	238.32	16.5618	-0.057626	0	-0.770421	0.226691	-0.299952	-0.0208449
1.38	-231.987	1011.93	-91.58	-0.154571	0	-0.425781	0.0134469	-0.0586559	0.00530837	-243.14	391.585	39.7405	-0.0606005	0	-0.765887	0.884007	-1.42372	-0.144488
1.39	-290.121	984.314	-89.0176	-0.150972	0	-0.42926	0.839734	-2.84903	0.257655	-151.209	426.347	25.5383	-0.0671089	0	-0.757823	0.9973880000000001	-2.81223	-0.168453
1.4	-279.149	974.106	-80.54389999999999	-0.148852	0	-0.433153	1.2867	-4.48999	0.371255	-121.22	465.707	12.027	-0.072589	0	-0.751389	0.287463	-1.10439	-0.028521
1.41	-219.994	1026.13	-75.1349	-0.148717	0	-0.437124	0.891586	-4.15867	0.304505	-168.203	555.36	19.6176	-0.0747411	0	-0.747902	-0.26849	0.886479	0.0313141
1.42	-165.562	1082.44	-84.7677	-0.148135	0	-0.440043	0.375964	-2.45805	0.192494	-210.254	660.4400000000001	37.8186	-0.075668	0	-0.7460869999999999	-0.448645	1.40926	0.0806982
1.43	-151.759	1093.9	-87.2901	-0.145292	0	-0.442714	0.243236	-1.75328	0.139907	-230.167	745.1079999999999	63.0188	-0.0754672	0	-0.745088	-0.331136	1.07197	0.0906636
1.44	-148.482	1040.56	-71.42919999999999	-0.140942	0	-0.445531	0.333205	-2.3351	0.160293	-224.337	790.9109999999999	83.483	-0.0742149	0	-0.743433	-0.107879	0.380332	0.0401452
1.45	-147.267	957.471	-50.932	-0.136077	0	-0.448171	0.470081	-3.05627	0.162576	-219.39	805.321	92.1152	-0.07117510000000001	0	-0.740702	0.0159908	-0.0586977	-0.00671404
1.46	-149.314	885.7329999999999	-36.2915	-0.131913	0	-0.450294	0.528276	-3.13374	0.1284	-225.042	796.9109999999999	88.6164	-0.06661449999999999	0	-0.736907	0.0488384	-0.172945	-0.0192314
1.47	-146.947	835.062	-29.7173	-0.128912	0	-0.451504	0.431981	-2.45483	0.0873599	-231.093	775.53	81.6006	-0.0619164	0	-0.7328519999999999	0.0343376	-0.115234	-0.0121249
1.48	-138.751	800.3630000000001	-29.5582	-0.126668	0	-0.451804	0.213369	-1.23078	0.0454541	-231.363	747.995	74.4053	-0.0580335	0	-0.729128	-0.040462	0.130813	0.0130124
1.49	-127.584	782.951	-33.1764	-0.125351	0	-0.451399	0.00430902	-0.0264434	0.0011205	-230.059	722.958	69.40900000000001	-0.0551812	0	-0.726181	-0.171418	0.53868	0.051717
1.5	-113.855	782.574	-37.1256	-0.12535	0	-0.450926	-0.127766	0.878193	-0.0416618	-220.74	707.599	69.194	-0.0539517	0	-0.724243	-0.310361	0.994885	0.0972867
1.51	-96.447	796.216	-38.6556	-0.126424	0	-0.450734	-0.166293	1.37282	-0.0666495	-201.077	706.011	73.6846	-0.0543438	0	-0.723098	-0.438554	1.53983	0.160708
1.52	-76.5705	821.823	-38.7759	-0.128029	0	-0.450601	-0.142794	1.53259	-0.072312	-181.514	727.626	79.0689	-0.0561005	0	-0.722333	-0.588512	2.35914	0.25636
1.53	-57.3928	850.144	-38.3918	-0.129324	0	-0.450567	-0.101231	1.4995	-0.0677164	-166.049	765.211	81.98090000000001	-0.0583053	0	-0.721677	-0.728921	3.35911	0.359878
1.54	-43.1227	867.212	-37.8755	-0.129524	0	-0.450665	-0.0759944	1.52827	-0.0667474	-150.277	807.793	82.4987	-0.0603485	0	-0.721042	-0.820715	4.41163	0.450553
1.55	-38.2906	865.317	-37.2308	-0.128184	0	-0.450734	-0.0707639	1.59917	-0.0688053	-135.269	849.943	82.2474	-0.0615325	0	-0.7206129999999999	-0.854723	5.37052	0.519696
1.56	-45.3178	843.936	-36.824	-0.12532	0	-0.450577	-0.08388379999999999	1.56214	-0.06816170000000001	-127.12	881.17	82.8099	-0.0613131	0	-0.7201379999999999	-0.854505	5.92325	0.556651
1.57	-59.113	809.105	-36.6022	-0.121667	0	-0.450218	-0.112778	1.54364	-0.069831	-125.998	894.239	82.75749999999999	-0.059697	0	-0.719552	-0.8488599999999999	6.02455	0.557543
1.58	-72.8639	770.837	-36.7201	-0.11801	0	-0.449705	-0.166627	1.76277	-0.0839727	-128.348	886.372	81.02070000000001	-0.0568876	0	-0.718815	-0.844468	5.8319	0.533077
1.59	-83.4623	736.853	-38.3851	-0.114942	0	-0.449096	-0.253725	2.24003	-0.11669	-133.874	863.693	77.4718	-0.0533244	0	-0.718047	-0.858853	5.54091	0.497011
1.6	-88.3188	710.879	-40.1618	-0.112777	0	-0.448322	-0.357886	2.88063	-0.162744	-140.904	836.22	72.36190000000001	-0.049757	0	-0.717159	-0.892326	5.29566	0.458257
1.61	-86.6777	694.336	-41.1834	-0.111463	0	-0.447544	-0.449157	3.598	-0.213409	-144.661	810.475	67.12820000000001	-0.046778	0	-0.716168	-0.923853	5.17595	0.428702
1.62	-79.0797	687.586	-41.5384	-0.111021	0	-0.44692	-0.496542	4.31736	-0.26082	-143.105	791.021	63.5671	-0.0445809	0	-0.715425	-0.928519	5.13243	0.412446
1.63	-67.3374	691.524	-41.1757	-0.111398	0	-0.446461	-0.479571	4.92497	-0.29325	-138.123	781.849	62.7702	-0.0434243	0	-0.715032	-0.903811	5.11603	0.410737
1.64	-52.5547	702.145	-38.5143	-0.112307	0	-0.446379	-0.393666	5.25947	-0.288495	-129.858	782.809	65.1833	-0.0429905	0	-0.7149	-0.840345	5.06578	0.42182
1.65	-36.8273	716.0650000000001	-33.8701	-0.113609	0	-0.446523	-0.272119	5.29104	-0.250268	-118.317	791.6609999999999	71.003	-0.0432717	0	-0.715051	-0.720828	4.82307	0.432575
1.66	-22.7125	728.848	-29.466	-0.114895	0	-0.446695	-0.161292	5.1759	-0.209252	-106.318	806.626	78.6537	-0.0440318	0	-0.715438	-0.573155	4.3485	0.42402
1.67	-11.9293	736.102	-28.1323	-0.115828	0	-0.446509	-0.0850701	5.24927	-0.200616	-95.83620000000001	825.053	85.337	-0.0449396	0	-0.71601	-0.454574	3.91342	0.404774
1.68	-4.81126	735.538	-31.2535	-0.116184	0	-0.445823	-0.0379686	5.80459	-0.246641	-87.6284	841.037	89.2929	-0.0457479	0	-0.716433	-0.375642	3.60532	0.382777
1.69	-2.3118	726.364	-36.7745	-0.115857	0	-0.444839	-0.0211248	6.63736	-0.336038	-82.79600000000001	849.9059999999999	89.6203	-0.0462639	0	-0.716469	-0.340334	3.49355	0.368385
1.7	-4.18439	711.2670000000001	-41.8253	-0.115047	0	-0.443936	-0.0433557	7.36964	-0.433363	-81.9806	847.316	86.7908	-0.0462132	0	-0.716101	-0.338375	3.4973	0.358229
1.71	-8.88463	694.922	-45.4554	-0.113993	0	-0.443234	-0.099914	7.8149	-0.511178	-85.05459999999999	832.777	82.0192	-0.0455005	0	-0.715372	-0.357848	3.50373	0.345078
1.72	-14.7892	680.991	-48.4092	-0.112916	0	-0.442685	-0.175423	8.077629999999999	-0.574209	-91.25709999999999	811.747	76.61239999999999	-0.0443843	0	-0.7146670000000001	-0.37985	3.37883	0.318893
1.73	-20.3443	672.463	-51.3716	-0.112084	0	-0.442192	-0.251236	8.30439	-0.634398	-99.24339999999999	790.787	71.16240000000001	-0.0433388	0	-0.7140300000000001	-0.394644	3.14459	0.28298
1.74	-24.8682	671.155	-54.4363	-0.111533	0	-0.44171	-0.319854	8.632400000000001	-0.70016	-107.645	775.6130000000001	66.6743	-0.0427403	0	-0.713537	-0.404555	2.91493	0.250578
1.75	-26.5206	678.623	-58.365	-0.111379	0	-0.44113	-0.350986	8.98119	-0.772428	-114.034	769.6369999999999	62.8311	-0.0427003	0	-0.713108	-0.405516	2.7369	0.223433
1.76	-23.4805	694.472	-63.0485	-0.111675	0	-0.440366	-0.308238	9.1166	-0.827662	-116.01	778.091	58.3727	-0.043425	0	-0.712654	-0.407584	2.7337	0.205083
1.77	-17.3194	716.755	-67.2469	-0.11223	0	-0.439617	-0.215106	8.90202	-0.835199	-110.453	803.772	53.0896	-0.0448005	0	-0.712248	-0.409698	2.98139	0.196922
1.78	-11.1484	742.871	-70.4636	-0.11265	0	-0.439005	-0.124135	8.27167	-0.784594	-100.527	841.2670000000001	47.2436	-0.0461176	0	-0.712099	-0.387713	3.24462	0.18221
1.79	-7.00768	765.992	-69.623	-0.112511	0	-0.438718	-0.06505180000000001	7.11065	-0.646305	-98.4723	877.197	42.7464	-0.0463708	0	-0.712377	-0.350275	3.12027	0.152053
1.8	-7.88305	780.473	-63.5671	-0.111755	0	-0.438819	-0.0554304	5.48797	-0.446978	-101.006	891.249	38.6752	-0.0453076	0	-0.712832	-0.306322	2.7029	0.117291
1.81	-16.5356	784.838	-55.2531	-0.110356	0	-0.439063	-0.07798769999999999	3.70158	-0.260593	-101.663	873.768	33.2052	-0.0435033	0	-0.7133	-0.268625	2.30877	0.0877386
1.82	-30.3024	777.946	-47.4449	-0.108431	0	-0.438937	-0.0826992	2.12311	-0.129483	-99.51909999999999	824.814	27.1661	-0.041205	0	-0.713973	-0.22642	1.87657	0.0618067
1.83	-44.2991	755.17	-41.0783	-0.106223	0	-0.438333	-0.0564519	0.96234	-0.0523476	-87.7873	739.312	21.5198	-0.0383297	0	-0.715129	-0.160487	1.35156	0.0393411
1.84	-54.1551	713.011	-37.118	-0.103921	0	-0.437015	-0.0260823	0.343402	-0.0178769	-62.0001	614.779	16.3517	-0.0344974	0	-0.716791	-0.08512749999999999	0.844105	0.0224512
1.85	-53.8839	645.136	-33.1513	-0.101681	0	-0.435142	-0.0188634	0.225846	-0.0116055	-26.0922	459.932	8.502750000000001	-0.029617	0	-0.718363	-0.0414674	0.730954	0.0135131
1.86	-40.1423	545.71	-24.2806	-0.09944740000000001	0	-0.432789	-0.0272616	0.370605	-0.0164896	10.4366	287.491	-1.5346	-0.0227921	0	-0.718593	0.0325934	0.897834	-0.00479254
1.87	-18.068	411.507	-8.118550000000001	-0.09667630000000001	0	-0.430101	-0.00752353	0.171352	-0.00338057	27.1427	127.222	-6.17643	-0.008712050000000001	0	-0.713736	0.174998	0.820242	-0.0398214
